M48
; DRILL file {KiCad (5.99.0-9795-gc3c3649211)} date Thu Mar 25 09:38:20 2021
; FORMAT={-:-/ absolute / inch / decimal}
; #@! TF.CreationDate,2021-03-25T09:38:20-07:00
; #@! TF.GenerationSoftware,Kicad,Pcbnew,(5.99.0-9795-gc3c3649211)
; #@! TF.FileFunction,Plated,1,2,PTH
FMAT,2
INCH
; #@! TA.AperFunction,ViaDrill
T1C0.0157
; #@! TA.AperFunction,ComponentDrill,Plated,PTH
T2C0.0256
%
G90
G05
T1
; via hole
X4.8197Y-2.0225
X4.8197Y-2.2495
X4.88Y-2.16
X4.9197Y-2.65
X4.9291Y-2.2495
X4.93Y-2.37
X5.03Y-2.0875
X5.05Y-2.0225
X5.1197Y-2.65
X5.22Y-2.57
X5.66Y-1.84
X5.66Y-1.94
X5.66Y-2.04
X5.66Y-2.14
X5.66Y-2.24
X6.08Y-1.62
X6.08Y-1.72
X6.18Y-1.62
X6.18Y-1.72
T2
; plated pad hole
G00X4.9959Y-1.6711
M15
G01X4.9959Y-1.6199
M16
G05
G00X4.9959Y-1.8158
M15
G01X4.9959Y-1.7764
M16
G05
G00X5.3361Y-1.6711
M15
G01X5.3361Y-1.6199
M16
G05
G00X5.3361Y-1.8158
M15
G01X5.3361Y-1.7764
M16
G05
T0
M30
