%TF.GenerationSoftware,KiCad,Pcbnew,(5.99.0-9795-gc3c3649211)*%
%TF.CreationDate,2021-03-25T09:38:18-07:00*%
%TF.ProjectId,smd-challenge,736d642d-6368-4616-9c6c-656e67652e6b,rev?*%
%TF.SameCoordinates,Original*%
%TF.FileFunction,Soldermask,Top*%
%TF.FilePolarity,Negative*%
%FSLAX46Y46*%
G04 Gerber Fmt 4.6, Leading zero omitted, Abs format (unit mm)*
G04 Created by KiCad (PCBNEW (5.99.0-9795-gc3c3649211)) date 2021-03-25 09:38:18*
%MOMM*%
%LPD*%
G01*
G04 APERTURE LIST*
G04 Aperture macros list*
%AMRoundRect*
0 Rectangle with rounded corners*
0 $1 Rounding radius*
0 $2 $3 $4 $5 $6 $7 $8 $9 X,Y pos of 4 corners*
0 Add a 4 corners polygon primitive as box body*
4,1,4,$2,$3,$4,$5,$6,$7,$8,$9,$2,$3,0*
0 Add four circle primitives for the rounded corners*
1,1,$1+$1,$2,$3*
1,1,$1+$1,$4,$5*
1,1,$1+$1,$6,$7*
1,1,$1+$1,$8,$9*
0 Add four rect primitives between the rounded corners*
20,1,$1+$1,$2,$3,$4,$5,0*
20,1,$1+$1,$4,$5,$6,$7,0*
20,1,$1+$1,$6,$7,$8,$9,0*
20,1,$1+$1,$8,$9,$2,$3,0*%
G04 Aperture macros list end*
%ADD10RoundRect,0.100000X0.130000X0.100000X-0.130000X0.100000X-0.130000X-0.100000X0.130000X-0.100000X0*%
%ADD11RoundRect,0.250000X0.375000X0.625000X-0.375000X0.625000X-0.375000X-0.625000X0.375000X-0.625000X0*%
%ADD12RoundRect,0.062500X0.062500X-0.337500X0.062500X0.337500X-0.062500X0.337500X-0.062500X-0.337500X0*%
%ADD13RoundRect,0.062500X0.337500X-0.062500X0.337500X0.062500X-0.337500X0.062500X-0.337500X-0.062500X0*%
%ADD14R,3.600000X3.600000*%
%ADD15RoundRect,0.200000X0.200000X0.275000X-0.200000X0.275000X-0.200000X-0.275000X0.200000X-0.275000X0*%
%ADD16RoundRect,0.225000X-0.250000X0.225000X-0.250000X-0.225000X0.250000X-0.225000X0.250000X0.225000X0*%
%ADD17RoundRect,0.200000X-0.275000X0.200000X-0.275000X-0.200000X0.275000X-0.200000X0.275000X0.200000X0*%
%ADD18RoundRect,0.250000X-0.650000X0.325000X-0.650000X-0.325000X0.650000X-0.325000X0.650000X0.325000X0*%
%ADD19RoundRect,0.250000X0.650000X-0.325000X0.650000X0.325000X-0.650000X0.325000X-0.650000X-0.325000X0*%
%ADD20RoundRect,0.100000X-0.130000X-0.100000X0.130000X-0.100000X0.130000X0.100000X-0.130000X0.100000X0*%
%ADD21RoundRect,0.218750X0.218750X0.256250X-0.218750X0.256250X-0.218750X-0.256250X0.218750X-0.256250X0*%
%ADD22R,1.200000X1.400000*%
%ADD23RoundRect,0.150000X-0.512500X-0.150000X0.512500X-0.150000X0.512500X0.150000X-0.512500X0.150000X0*%
%ADD24RoundRect,0.243750X0.243750X0.456250X-0.243750X0.456250X-0.243750X-0.456250X0.243750X-0.456250X0*%
%ADD25RoundRect,0.147500X0.147500X0.172500X-0.147500X0.172500X-0.147500X-0.172500X0.147500X-0.172500X0*%
%ADD26RoundRect,0.250000X-0.262500X-0.450000X0.262500X-0.450000X0.262500X0.450000X-0.262500X0.450000X0*%
%ADD27RoundRect,0.200000X-0.200000X-0.275000X0.200000X-0.275000X0.200000X0.275000X-0.200000X0.275000X0*%
%ADD28R,0.520000X1.000000*%
%ADD29R,0.270000X1.000000*%
%ADD30C,0.630000*%
%ADD31C,0.600000*%
%ADD32R,1.000000X2.000000*%
%ADD33O,1.158000X2.316000*%
%ADD34O,1.200000X2.400000*%
%ADD35RoundRect,0.135000X-0.135000X-0.185000X0.135000X-0.185000X0.135000X0.185000X-0.135000X0.185000X0*%
%ADD36RoundRect,0.250000X-0.312500X-0.625000X0.312500X-0.625000X0.312500X0.625000X-0.312500X0.625000X0*%
%ADD37RoundRect,0.225000X0.225000X0.250000X-0.225000X0.250000X-0.225000X-0.250000X0.225000X-0.250000X0*%
%ADD38RoundRect,0.225000X-0.225000X-0.250000X0.225000X-0.250000X0.225000X0.250000X-0.225000X0.250000X0*%
%ADD39R,1.000000X2.510000*%
G04 APERTURE END LIST*
D10*
%TO.C,D5*%
X148768750Y-64770000D03*
X148128750Y-64770000D03*
%TD*%
D11*
%TO.C,D1*%
X149946250Y-47752000D03*
X147146250Y-47752000D03*
%TD*%
D12*
%TO.C,U2*%
X130114000Y-56722000D03*
X130614000Y-56722000D03*
X131114000Y-56722000D03*
X131614000Y-56722000D03*
X132114000Y-56722000D03*
X132614000Y-56722000D03*
X133114000Y-56722000D03*
X133614000Y-56722000D03*
D13*
X134314000Y-56022000D03*
X134314000Y-55522000D03*
X134314000Y-55022000D03*
X134314000Y-54522000D03*
X134314000Y-54022000D03*
X134314000Y-53522000D03*
X134314000Y-53022000D03*
X134314000Y-52522000D03*
D12*
X133614000Y-51822000D03*
X133114000Y-51822000D03*
X132614000Y-51822000D03*
X132114000Y-51822000D03*
X131614000Y-51822000D03*
X131114000Y-51822000D03*
X130614000Y-51822000D03*
X130114000Y-51822000D03*
D13*
X129414000Y-52522000D03*
X129414000Y-53022000D03*
X129414000Y-53522000D03*
X129414000Y-54022000D03*
X129414000Y-54522000D03*
X129414000Y-55022000D03*
X129414000Y-55522000D03*
X129414000Y-56022000D03*
D14*
X131864000Y-54272000D03*
%TD*%
D15*
%TO.C,R9*%
X126047000Y-61468000D03*
X124397000Y-61468000D03*
%TD*%
D16*
%TO.C,C5*%
X123952000Y-57137000D03*
X123952000Y-58687000D03*
%TD*%
D17*
%TO.C,R3*%
X126492000Y-51372000D03*
X126492000Y-53022000D03*
%TD*%
D16*
%TO.C,C7*%
X136652000Y-56629000D03*
X136652000Y-58179000D03*
%TD*%
D18*
%TO.C,C4*%
X149860000Y-41468000D03*
X149860000Y-44418000D03*
%TD*%
D19*
%TO.C,C1*%
X139700000Y-44528000D03*
X139700000Y-41578000D03*
%TD*%
D17*
%TO.C,R2*%
X123952000Y-51372000D03*
X123952000Y-53022000D03*
%TD*%
D20*
%TO.C,R8*%
X156415250Y-64770000D03*
X157055250Y-64770000D03*
%TD*%
D21*
%TO.C,D3*%
X149333750Y-56642000D03*
X147758750Y-56642000D03*
%TD*%
D22*
%TO.C,Y1*%
X139192000Y-54696000D03*
X139192000Y-56896000D03*
X140792000Y-56896000D03*
X140792000Y-54696000D03*
%TD*%
D23*
%TO.C,U1*%
X143642500Y-41468000D03*
X143642500Y-42418000D03*
X143642500Y-43368000D03*
X145917500Y-43368000D03*
X145917500Y-41468000D03*
%TD*%
D16*
%TO.C,C6*%
X126492000Y-57137000D03*
X126492000Y-58687000D03*
%TD*%
D24*
%TO.C,D2*%
X149483750Y-52324000D03*
X147608750Y-52324000D03*
%TD*%
D25*
%TO.C,D4*%
X149031250Y-60452000D03*
X148061250Y-60452000D03*
%TD*%
D26*
%TO.C,R5*%
X156332250Y-52324000D03*
X158157250Y-52324000D03*
%TD*%
D27*
%TO.C,R6*%
X156377750Y-56642000D03*
X158027750Y-56642000D03*
%TD*%
D28*
%TO.C,J1*%
X134316000Y-45996000D03*
X133566000Y-45996000D03*
D29*
X132966000Y-45996000D03*
X132466000Y-45996000D03*
X131966000Y-45996000D03*
X131466000Y-45996000D03*
X130966000Y-45996000D03*
X130466000Y-45996000D03*
X129966000Y-45996000D03*
X129466000Y-45996000D03*
D28*
X128866000Y-45996000D03*
X128116000Y-45996000D03*
D30*
X128216000Y-44896000D03*
D31*
X128216000Y-44896000D03*
D30*
X134216000Y-44896000D03*
D32*
X132616000Y-41796000D03*
X129816000Y-41796000D03*
D33*
X135536000Y-45621000D03*
X126896000Y-45621000D03*
D34*
X135536000Y-41796000D03*
X126896000Y-41796000D03*
%TD*%
D35*
%TO.C,R7*%
X156605250Y-60452000D03*
X157625250Y-60452000D03*
%TD*%
D36*
%TO.C,R4*%
X155782250Y-47752000D03*
X158707250Y-47752000D03*
%TD*%
D37*
%TO.C,C2*%
X140767000Y-59352000D03*
X139217000Y-59352000D03*
%TD*%
D38*
%TO.C,C3*%
X139217000Y-52240000D03*
X140767000Y-52240000D03*
%TD*%
D39*
%TO.C,J2*%
X122419999Y-67310000D03*
X124959999Y-64000000D03*
X127499999Y-67310000D03*
X130039999Y-64000000D03*
X132579999Y-67310000D03*
%TD*%
D27*
%TO.C,R1*%
X139383000Y-47752000D03*
X141033000Y-47752000D03*
%TD*%
M02*
